<svg width="81" height="42" viewBox="0 0 81 42" fill="none" xmlns="http://www.w3.org/2000/svg">
<path d="M80.1628 17.6814C79.5573 16.1678 78.7501 14.7551 77.842 13.4433C73.2002 6.58155 66.0359 2.04077 57.9634 0.930781C56.9544 0.82996 55.8444 1.0316 55.0371 1.6371C50.7989 4.76524 45.7537 6.37972 40.5064 6.37972C35.2591 6.37972 30.2138 4.76524 25.9757 1.6371C25.1684 1.0316 24.0584 0.728947 23.0494 0.930781C14.9768 2.04077 7.71158 6.58155 3.1708 13.4433C2.26265 14.7551 1.45531 16.2688 0.850002 17.6814C0.547348 18.2869 0.648168 18.9933 0.950822 19.5988C1.75816 21.0114 2.76713 22.4242 3.67529 23.6351C5.08793 25.5524 6.60159 27.2677 8.31708 28.8822C9.72972 30.2948 11.3442 31.6066 12.9589 32.9184C20.9304 38.8721 30.5167 42 40.4056 42C50.2944 42 59.8807 38.8719 67.8522 32.9184C69.4667 31.7076 71.0812 30.2948 72.494 28.8822C74.1085 27.2677 75.723 25.5522 77.1358 23.6351C78.1448 22.3232 79.0532 21.0114 79.8603 19.5988C80.3646 18.9933 80.4654 18.2868 80.1628 17.6814Z" fill="#9D9D9D"/>
</svg>
